<svg width="143" height="36" viewBox="0 0 143 36" fill="none" xmlns="http://www.w3.org/2000/svg">
<path d="M58.4586 13.0322H49.8356V17.3789H57.4482V20.4334H49.8356V26.4248H46.0293V9.9777H58.4586V13.0322ZM62.3802 12.0218C61.0174 12.0218 60.1011 11.129 60.1011 9.9777C60.1011 8.82641 61.0174 7.93356 62.3802 7.93356C63.7429 7.93356 64.6593 8.77941 64.6593 9.90722C64.6593 11.129 63.7429 12.0218 62.3802 12.0218ZM60.5475 26.4248V13.784H64.2128V26.4248H60.5475ZM75.2978 13.5961C78.2817 13.5961 80.5373 15.3348 80.5373 19.1881V26.4248H76.872V19.752C76.872 17.7078 75.9321 16.768 74.3109 16.768C72.5487 16.768 71.28 17.8488 71.28 20.1749V26.4248H67.6146V13.784H71.1155V15.2643C72.1023 14.1835 73.5826 13.5961 75.2978 13.5961ZM88.9584 13.5961C92.8117 13.5961 95.0438 15.3818 95.0438 19.2116V26.4248H91.6134V24.8506C90.932 26.0019 89.6163 26.6128 87.7601 26.6128C84.7996 26.6128 83.0374 24.9681 83.0374 22.7829C83.0374 20.5508 84.6117 19.0001 88.465 19.0001H91.3785C91.3785 17.4259 90.4386 16.5096 88.465 16.5096C87.1257 16.5096 85.7395 16.956 84.8231 17.6843L83.5074 15.1233C84.8936 14.1365 86.9377 13.5961 88.9584 13.5961ZM88.6764 24.1457C89.8982 24.1457 90.9555 23.5818 91.3785 22.4305V21.1382H88.8644C87.1492 21.1382 86.6088 21.7726 86.6088 22.6185C86.6088 23.5348 87.3842 24.1457 88.6764 24.1457ZM106.044 13.5961C109.028 13.5961 111.284 15.3348 111.284 19.1881V26.4248H107.619V19.752C107.619 17.7078 106.679 16.768 105.057 16.768C103.295 16.768 102.026 17.8488 102.026 20.1749V26.4248H98.3611V13.784H101.862V15.2643C102.849 14.1835 104.329 13.5961 106.044 13.5961ZM120.853 26.6128C116.741 26.6128 113.804 23.9107 113.804 20.1044C113.804 16.2981 116.741 13.5961 120.853 13.5961C123.508 13.5961 125.599 14.7474 126.515 16.815L123.672 18.3422C122.991 17.1439 121.981 16.6035 120.829 16.6035C118.973 16.6035 117.517 17.8958 117.517 20.1044C117.517 22.313 118.973 23.6053 120.829 23.6053C121.981 23.6053 122.991 23.0884 123.672 21.8666L126.515 23.4173C125.599 25.438 123.508 26.6128 120.853 26.6128ZM140.848 20.1514C140.848 20.4334 140.801 20.8328 140.777 21.1382H131.214C131.567 22.7125 132.906 23.6758 134.833 23.6758C136.172 23.6758 137.135 23.2764 138.005 22.454L139.955 24.5686C138.78 25.9079 137.018 26.6128 134.739 26.6128C130.368 26.6128 127.525 23.8638 127.525 20.1044C127.525 16.3216 130.415 13.5961 134.269 13.5961C137.981 13.5961 140.848 16.0866 140.848 20.1514ZM134.292 16.3686C132.624 16.3686 131.426 17.3789 131.167 19.0001H137.394C137.135 17.4024 135.937 16.3686 134.292 16.3686Z" fill="black"/>
<mask id="mask0_466_1713" style="mask-type:alpha" maskUnits="userSpaceOnUse" x="0" y="0" width="36" height="36">
<rect x="0.911621" y="0.243408" width="35.0553" height="35.0553" rx="8.04577" fill="url(#paint0_linear_466_1713)"/>
</mask>
<g mask="url(#mask0_466_1713)">
<rect x="-0.566895" y="0.243408" width="37.1535" height="35.0553" fill="url(#paint1_linear_466_1713)"/>
<rect x="0.493164" y="-0.255371" width="35.96" height="36.0414" fill="#FF7028"/>
</g>
<mask id="mask1_466_1713" style="mask-type:alpha" maskUnits="userSpaceOnUse" x="6" y="4" width="23" height="27">
<path d="M22.2155 9.19202H20.1807C20.0669 10.5807 19.6466 11.9316 18.9464 13.1441C18.1179 14.5797 16.9254 15.7716 15.4899 16.6006C14.0543 17.4296 12.4259 17.8655 10.7679 17.8655C9.11046 17.8655 7.48201 17.4296 6.0459 16.6006L7.79198 13.5762C8.69679 14.0985 9.72314 14.3739 10.7679 14.3739C11.8126 14.3739 12.839 14.0985 13.7438 13.5762C14.6486 13.0538 15.4001 12.3028 15.9225 11.398C16.3155 10.7168 16.5686 9.96694 16.6695 9.19202H14.701L18.458 4.74097L22.2155 9.19202Z" fill="#13B569"/>
<path fill-rule="evenodd" clip-rule="evenodd" d="M14.9607 11.7468V9.78296H11.463V13.5986C12.159 13.5172 12.8355 13.3024 13.4545 12.9631C14.0273 12.6493 14.5367 12.2367 14.9607 11.7468ZM14.9592 17.549C13.8529 18.0363 12.6691 18.324 11.463 18.3989C11.463 18.4749 11.463 18.551 11.463 18.6271C11.4627 18.8347 11.4623 19.0424 11.4619 19.2501C11.4592 20.7038 11.4566 22.1579 11.4897 23.6111C11.5282 25.3438 12.6644 26.7738 14.3095 27.3346C15.1819 27.6321 16.0699 27.6171 16.9651 27.602C17.0683 27.6002 17.1715 27.5985 17.2749 27.5972C17.9427 28.4736 18.8336 29.1571 19.8555 29.5752C20.9343 30.0167 22.1162 30.145 23.2646 29.9454C24.413 29.7463 25.4823 29.2273 26.3492 28.4479C27.2161 27.6686 27.8456 26.6606 28.1656 25.54C28.4861 24.4189 28.4839 23.2303 28.1594 22.1109C27.835 20.9914 27.2011 19.9857 26.3314 19.2097C26.0131 18.9253 25.6669 18.6761 25.3006 18.4654L26.6079 17.1581V13.657H19.4839C19.4751 13.6708 19.4663 13.6846 19.4575 13.6984V17.1581H21.9472L19.1458 19.9595L21.4762 22.2898L22.9535 20.8125C23.4441 20.934 23.899 21.1732 24.2781 21.5116C24.7158 21.9013 25.0341 22.4069 25.1969 22.9694C25.3602 23.5319 25.3613 24.1296 25.2002 24.6926C25.0397 25.2557 24.723 25.7625 24.2871 26.1544C23.8516 26.5458 23.3142 26.8067 22.7372 26.907C22.1596 27.0074 21.5659 26.9427 21.024 26.7208C20.4816 26.4989 20.0127 26.1288 19.6715 25.6527C19.3304 25.176 19.1302 24.6135 19.094 24.0287L17.843 24.1062C17.8069 24.1065 17.771 24.1069 17.7352 24.1073C17.4044 24.111 17.0855 24.1146 16.767 24.1C15.6815 24.0493 15.0978 23.4896 14.9824 22.4064C14.9601 22.1951 14.9596 21.9804 14.9596 21.7669C14.959 21.5635 14.959 21.3601 14.959 21.1573V21.157C14.9585 20.6059 14.9585 20.0547 14.9585 19.5042V19.5035V19.5025C14.9585 18.8512 14.9585 18.1999 14.9592 17.549Z" fill="#13B569"/>
</mask>
<g mask="url(#mask1_466_1713)">
<rect x="6.0459" y="4.74097" width="22.8208" height="25.3983" fill="white"/>
</g>
<defs>
<linearGradient id="paint0_linear_466_1713" x1="20.7074" y1="3.77929" x2="33.3517" y2="39.656" gradientUnits="userSpaceOnUse">
<stop stop-color="#0EB5FD"/>
<stop offset="1" stop-color="#2346FF"/>
</linearGradient>
<linearGradient id="paint1_linear_466_1713" x1="25.1051" y1="0.243408" x2="19.9643" y2="35.583" gradientUnits="userSpaceOnUse">
<stop stop-color="#A1FE9F"/>
<stop offset="0.210844" stop-color="#01F8A1"/>
<stop offset="0.542909" stop-color="#6FAAFC"/>
<stop offset="0.914268" stop-color="#5052FF"/>
</linearGradient>
</defs>
</svg>
